<mxfile host="app.diagrams.net" modified="2024-04-25T18:04:49.521Z" agent="Mozilla/5.0 (X11; Linux x86_64) AppleWebKit/537.36 (KHTML, like Gecko) Chrome/124.0.0.0 Safari/537.36" version="24.3.0" etag="wxfvDbwRJZmIo48R82si" type="github">
  <diagram name="PÃ¡gina-1" id="iso7Uq2f11edl_DwZmmf">
    <mxGraphModel>
      <root>
        <mxCell id="0" />
        <mxCell id="1" parent="0" />
      </root>
    </mxGraphModel>
  </diagram>
</mxfile>
